<svg xmlns="http://www.w3.org/2000/svg" viewBox="0 0 100 100" fill="none">
  <defs>
    <linearGradient id="motoGrad" x1="0%" y1="0%" x2="100%" y2="100%">
      <stop offset="0%" style="stop-color:#ff5cb8"/>
      <stop offset="100%" style="stop-color:#9b5cff"/>
    </linearGradient>
  </defs>
  <!-- Back wheel -->
  <circle cx="20" cy="72" r="14" fill="none" stroke="#4a4a5a" stroke-width="4"/>
  <circle cx="20" cy="72" r="8" fill="#2d2d44"/>
  <circle cx="20" cy="72" r="3" fill="#1a1a2e"/>
  <!-- Front wheel -->
  <circle cx="80" cy="72" r="14" fill="none" stroke="#4a4a5a" stroke-width="4"/>
  <circle cx="80" cy="72" r="8" fill="#2d2d44"/>
  <circle cx="80" cy="72" r="3" fill="#1a1a2e"/>
  <!-- Frame/Body -->
  <path d="M25 65 L35 45 L65 40 L75 55 L75 65" fill="#1a1a2e" stroke="url(#motoGrad)" stroke-width="2"/>
  <!-- Tank/Battery housing -->
  <path d="M35 45 Q45 38 55 38 L65 40 L60 50 L40 52 Z" fill="#2d2d44" stroke="url(#motoGrad)" stroke-width="1"/>
  <!-- Seat -->
  <path d="M35 45 L25 50 L25 55 L45 52 L50 45" fill="#0a0a15"/>
  <!-- Handlebar -->
  <path d="M68 40 L75 30" fill="none" stroke="#4a4a5a" stroke-width="3"/>
  <path d="M70 28 L80 32" fill="none" stroke="#4a4a5a" stroke-width="2" stroke-linecap="round"/>
  <!-- Headlight -->
  <ellipse cx="78" cy="48" rx="4" ry="5" fill="#fffde7" stroke="url(#motoGrad)" stroke-width="1"/>
  <!-- Taillight -->
  <rect x="18" y="58" width="6" height="3" rx="1" fill="#ff5cb8"/>
  <!-- Front fork -->
  <line x1="75" y1="55" x2="80" y2="72" stroke="#4a4a5a" stroke-width="3"/>
  <!-- Swingarm -->
  <line x1="25" y1="65" x2="20" y2="72" stroke="#4a4a5a" stroke-width="3"/>
  <!-- Electric indicator -->
  <circle cx="50" cy="42" r="3" fill="#00d4ff"/>
  <text x="50" y="44" text-anchor="middle" fill="#1a1a2e" font-size="4" font-weight="bold">⚡</text>
</svg>