<svg xmlns="http://www.w3.org/2000/svg" viewBox="0 0 100 100" fill="none">
  <defs>
    <linearGradient id="imacGrad" x1="0%" y1="0%" x2="100%" y2="100%">
      <stop offset="0%" style="stop-color:#9b5cff"/>
      <stop offset="100%" style="stop-color:#ff5cb8"/>
    </linearGradient>
  </defs>
  <!-- Screen frame -->
  <rect x="10" y="8" width="80" height="55" rx="4" fill="#e8e8ed" stroke="url(#imacGrad)" stroke-width="2"/>
  <!-- Screen -->
  <rect x="14" y="12" width="72" height="43" rx="2" fill="#1a1a2e"/>
  <!-- Chin -->
  <rect x="10" y="55" width="80" height="8" rx="0" fill="#e8e8ed"/>
  <!-- Apple logo -->
  <path d="M50 28c-1.5-1.5-1.5-4 0-5.5 1.5 1.5 1.5 4 0 5.5zm-4 2c-3 0-5.5 2.5-5.5 6s2.5 8 5.5 8c1.5 0 2.5-.5 3.5-.5s2 .5 3.5.5c3 0 5.5-4 5.5-8s-2.5-6-5.5-6c-1.5 0-2.5.5-3.5.5s-2-.5-3.5-.5z" fill="#9b5cff"/>
  <!-- Stand -->
  <path d="M42 63 L50 75 L58 63" fill="none" stroke="#c0c0c5" stroke-width="3"/>
  <!-- Base -->
  <ellipse cx="50" cy="78" rx="15" ry="4" fill="#c0c0c5"/>
</svg>