<svg xmlns="http://www.w3.org/2000/svg" viewBox="0 0 200 200" fill="none">
  <defs>
    <linearGradient id="jblGrad" x1="0%" y1="0%" x2="100%" y2="100%">
      <stop offset="0%" stop-color="#FF5C5C" stop-opacity="0.4"/>
      <stop offset="100%" stop-color="#FF5C5C" stop-opacity="0.2"/>
    </linearGradient>
  </defs>
  <!-- Speaker body (cylindrical) -->
  <ellipse cx="100" cy="45" rx="45" ry="15" fill="url(#jblGrad)" stroke="#FF5C5C" stroke-width="2"/>
  <rect x="55" y="45" width="90" height="110" fill="url(#jblGrad)" stroke="#FF5C5C" stroke-width="2"/>
  <ellipse cx="100" cy="155" rx="45" ry="15" fill="url(#jblGrad)" stroke="#FF5C5C" stroke-width="2"/>
  <!-- Speaker grille pattern -->
  <rect x="60" y="55" width="80" height="90" rx="5" fill="#0B0F1A" stroke="#FF5C5C" stroke-opacity="0.5"/>
  <!-- Grille dots pattern -->
  <circle cx="75" cy="70" r="3" fill="#141B2D" stroke="#FF5C5C" stroke-opacity="0.3"/>
  <circle cx="90" cy="70" r="3" fill="#141B2D" stroke="#FF5C5C" stroke-opacity="0.3"/>
  <circle cx="105" cy="70" r="3" fill="#141B2D" stroke="#FF5C5C" stroke-opacity="0.3"/>
  <circle cx="120" cy="70" r="3" fill="#141B2D" stroke="#FF5C5C" stroke-opacity="0.3"/>
  <circle cx="75" cy="85" r="3" fill="#141B2D" stroke="#FF5C5C" stroke-opacity="0.3"/>
  <circle cx="90" cy="85" r="3" fill="#141B2D" stroke="#FF5C5C" stroke-opacity="0.3"/>
  <circle cx="105" cy="85" r="3" fill="#141B2D" stroke="#FF5C5C" stroke-opacity="0.3"/>
  <circle cx="120" cy="85" r="3" fill="#141B2D" stroke="#FF5C5C" stroke-opacity="0.3"/>
  <circle cx="75" cy="100" r="3" fill="#141B2D" stroke="#FF5C5C" stroke-opacity="0.3"/>
  <circle cx="90" cy="100" r="3" fill="#141B2D" stroke="#FF5C5C" stroke-opacity="0.3"/>
  <circle cx="105" cy="100" r="3" fill="#141B2D" stroke="#FF5C5C" stroke-opacity="0.3"/>
  <circle cx="120" cy="100" r="3" fill="#141B2D" stroke="#FF5C5C" stroke-opacity="0.3"/>
  <circle cx="75" cy="115" r="3" fill="#141B2D" stroke="#FF5C5C" stroke-opacity="0.3"/>
  <circle cx="90" cy="115" r="3" fill="#141B2D" stroke="#FF5C5C" stroke-opacity="0.3"/>
  <circle cx="105" cy="115" r="3" fill="#141B2D" stroke="#FF5C5C" stroke-opacity="0.3"/>
  <circle cx="120" cy="115" r="3" fill="#141B2D" stroke="#FF5C5C" stroke-opacity="0.3"/>
  <circle cx="75" cy="130" r="3" fill="#141B2D" stroke="#FF5C5C" stroke-opacity="0.3"/>
  <circle cx="90" cy="130" r="3" fill="#141B2D" stroke="#FF5C5C" stroke-opacity="0.3"/>
  <circle cx="105" cy="130" r="3" fill="#141B2D" stroke="#FF5C5C" stroke-opacity="0.3"/>
  <circle cx="120" cy="130" r="3" fill="#141B2D" stroke="#FF5C5C" stroke-opacity="0.3"/>
  <!-- JBL logo area -->
  <rect x="85" cy="95" width="30" height="12" rx="3" fill="#FF5C5C" fill-opacity="0.5"/>
  <!-- Strap loop -->
  <rect x="140" y="85" width="8" height="30" rx="4" fill="none" stroke="#FF5C5C" stroke-width="3"/>
  <!-- Glow effect -->
  <ellipse cx="100" cy="100" rx="55" ry="65" fill="#FF5C5C" fill-opacity="0.05"/>
</svg>
