<svg xmlns="http://www.w3.org/2000/svg" viewBox="0 0 100 100" fill="none">
  <defs>
    <linearGradient id="ps5Grad" x1="0%" y1="0%" x2="100%" y2="100%">
      <stop offset="0%" style="stop-color:#00d4ff"/>
      <stop offset="100%" style="stop-color:#9b5cff"/>
    </linearGradient>
  </defs>
  <!-- Controller body -->
  <path d="M20 45 Q10 50 10 65 Q10 80 25 85 L35 85 Q40 85 42 80 L50 65 L58 80 Q60 85 65 85 L75 85 Q90 80 90 65 Q90 50 80 45 L70 40 Q60 35 50 35 Q40 35 30 40 Z" fill="#e8e8ed" stroke="url(#ps5Grad)" stroke-width="2"/>
  <!-- Touchpad -->
  <rect x="35" y="42" width="30" height="15" rx="2" fill="#1a1a2e"/>
  <!-- Left stick -->
  <circle cx="30" cy="55" r="8" fill="#2d2d44"/>
  <circle cx="30" cy="55" r="5" fill="#1a1a2e"/>
  <!-- Right stick -->
  <circle cx="70" cy="55" r="8" fill="#2d2d44"/>
  <circle cx="70" cy="55" r="5" fill="#1a1a2e"/>
  <!-- D-pad -->
  <path d="M22 68 L22 72 L18 72 L18 76 L22 76 L22 80 L26 80 L26 76 L30 76 L30 72 L26 72 L26 68 Z" fill="#2d2d44"/>
  <!-- Face buttons -->
  <circle cx="75" cy="65" r="3" fill="#2d2d44"/>
  <circle cx="82" cy="72" r="3" fill="#2d2d44"/>
  <circle cx="75" cy="79" r="3" fill="#2d2d44"/>
  <circle cx="68" cy="72" r="3" fill="#2d2d44"/>
  <!-- Button symbols -->
  <text x="75" y="67" text-anchor="middle" fill="#00d4ff" font-size="4">△</text>
  <text x="82" y="74" text-anchor="middle" fill="#ff5cb8" font-size="4">○</text>
  <text x="75" y="81" text-anchor="middle" fill="#9b5cff" font-size="4">✕</text>
  <text x="68" y="74" text-anchor="middle" fill="#ff9500" font-size="4">□</text>
  <!-- PS button -->
  <circle cx="50" cy="75" r="4" fill="#1a1a2e" stroke="url(#ps5Grad)" stroke-width="1"/>
  <!-- Light bar -->
  <rect x="35" y="38" width="30" height="2" rx="1" fill="url(#ps5Grad)"/>
</svg>