<svg xmlns="http://www.w3.org/2000/svg" viewBox="0 0 200 200" fill="none">
  <defs>
    <linearGradient id="ps5Grad" x1="0%" y1="0%" x2="100%" y2="100%">
      <stop offset="0%" stop-color="#3CCBFF" stop-opacity="0.3"/>
      <stop offset="100%" stop-color="#3CCBFF" stop-opacity="0.1"/>
    </linearGradient>
  </defs>
  <!-- PS5 Body left -->
  <path d="M50 40 L50 160 Q50 170 60 175 L85 180 L85 35 Q85 25 75 25 L60 25 Q50 25 50 40" fill="url(#ps5Grad)" stroke="#3CCBFF" stroke-width="2"/>
  <!-- PS5 Body right -->
  <path d="M150 40 L150 160 Q150 170 140 175 L115 180 L115 35 Q115 25 125 25 L140 25 Q150 25 150 40" fill="url(#ps5Grad)" stroke="#3CCBFF" stroke-width="2"/>
  <!-- PS5 Center black -->
  <rect x="85" y="30" width="30" height="150" fill="#0B0F1A" stroke="#3CCBFF" stroke-opacity="0.3"/>
  <!-- Disc drive -->
  <rect x="55" y="80" width="25" height="5" rx="2" fill="#141B2D" stroke="#3CCBFF" stroke-opacity="0.5"/>
  <!-- USB ports -->
  <rect x="88" y="165" width="8" height="4" rx="1" fill="#141B2D"/>
  <rect x="104" y="165" width="8" height="4" rx="1" fill="#141B2D"/>
  <!-- Logo glow -->
  <circle cx="100" cy="60" r="8" fill="#3CCBFF" fill-opacity="0.3"/>
  <circle cx="100" cy="60" r="4" fill="#3CCBFF"/>
  <!-- Glow effect -->
  <ellipse cx="100" cy="100" rx="55" ry="80" fill="#3CCBFF" fill-opacity="0.05"/>
</svg>
