<svg xmlns="http://www.w3.org/2000/svg" viewBox="0 0 100 100" fill="none">
  <defs>
    <linearGradient id="thermoGrad" x1="0%" y1="0%" x2="100%" y2="100%">
      <stop offset="0%" style="stop-color:#34d399"/>
      <stop offset="100%" style="stop-color:#00d4ff"/>
    </linearGradient>
  </defs>
  <!-- Base -->
  <rect x="25" y="70" width="50" height="20" rx="5" fill="#e8e8ed"/>
  <!-- Control panel -->
  <rect x="30" y="75" width="40" height="12" rx="3" fill="#1a1a2e"/>
  <!-- Screen -->
  <rect x="35" y="77" width="20" height="8" rx="1" fill="#0a0a15"/>
  <text x="45" y="83" text-anchor="middle" fill="#34d399" font-size="5">180°</text>
  <!-- Dial -->
  <circle cx="62" cy="81" r="4" fill="#2d2d44" stroke="url(#thermoGrad)" stroke-width="1"/>
  <!-- Bowl -->
  <path d="M28 70 L28 35 Q28 30 35 30 L65 30 Q72 30 72 35 L72 70" fill="#c0c0c5" stroke="url(#thermoGrad)" stroke-width="2"/>
  <!-- Bowl interior -->
  <ellipse cx="50" cy="50" rx="18" ry="15" fill="#e8e8ed"/>
  <!-- Lid -->
  <ellipse cx="50" cy="28" rx="22" ry="5" fill="#2d2d44"/>
  <!-- Lid handle -->
  <rect x="45" y="18" width="10" height="10" rx="2" fill="#1a1a2e" stroke="url(#thermoGrad)" stroke-width="1"/>
  <!-- Measuring cup hole -->
  <ellipse cx="50" cy="25" rx="5" ry="2" fill="#4a4a5a"/>
  <!-- Handle -->
  <rect x="72" y="40" width="8" height="20" rx="2" fill="#2d2d44"/>
</svg>