<svg xmlns="http://www.w3.org/2000/svg" viewBox="0 0 100 100" fill="none">
  <defs>
    <linearGradient id="vespaGrad" x1="0%" y1="0%" x2="100%" y2="100%">
      <stop offset="0%" style="stop-color:#00d4ff"/>
      <stop offset="100%" style="stop-color:#34d399"/>
    </linearGradient>
  </defs>
  <!-- Back wheel -->
  <circle cx="20" cy="75" r="12" fill="none" stroke="#4a4a5a" stroke-width="4"/>
  <circle cx="20" cy="75" r="6" fill="#2d2d44"/>
  <!-- Front wheel -->
  <circle cx="80" cy="75" r="10" fill="none" stroke="#4a4a5a" stroke-width="3"/>
  <circle cx="80" cy="75" r="5" fill="#2d2d44"/>
  <!-- Body -->
  <path d="M15 65 Q15 45 35 40 L60 40 Q75 40 78 55 L78 68 Q78 72 75 72 L25 72 Q15 72 15 65" fill="#e8e8ed" stroke="url(#vespaGrad)" stroke-width="2"/>
  <!-- Seat -->
  <path d="M30 40 Q35 35 55 35 Q60 35 60 40" fill="#2d2d44"/>
  <!-- Handlebar -->
  <path d="M70 35 L75 25 M68 25 L82 25" fill="none" stroke="#4a4a5a" stroke-width="3" stroke-linecap="round"/>
  <!-- Headlight -->
  <ellipse cx="78" cy="50" rx="5" ry="6" fill="#fffde7" stroke="url(#vespaGrad)" stroke-width="1"/>
  <!-- Vespa logo area -->
  <ellipse cx="45" cy="55" rx="12" ry="8" fill="#d0d0d5"/>
  <!-- Front fender -->
  <path d="M72 68 Q80 60 88 68" fill="none" stroke="#e8e8ed" stroke-width="4"/>
  <!-- Mirror -->
  <circle cx="65" cy="22" r="3" fill="#4a4a5a" stroke="url(#vespaGrad)" stroke-width="1"/>
  <line x1="68" y1="24" x2="72" y2="30" stroke="#4a4a5a" stroke-width="1"/>
</svg>